<?xml version="1.0" encoding="UTF-8" standalone="no"?>
<!-- Created with Inkscape (http://www.inkscape.org/) -->

<svg
   xmlns:dc="http://purl.org/dc/elements/1.1/"
   xmlns:cc="http://creativecommons.org/ns#"
   xmlns:rdf="http://www.w3.org/1999/02/22-rdf-syntax-ns#"
   xmlns:svg="http://www.w3.org/2000/svg"
   xmlns="http://www.w3.org/2000/svg"
   xmlns:sodipodi="http://sodipodi.sourceforge.net/DTD/sodipodi-0.dtd"
   xmlns:inkscape="http://www.inkscape.org/namespaces/inkscape"
   version="1.1"
   id="svg64"
   width="980"
   height="678"
   viewBox="0 0 980 678"
   sodipodi:docname="nlph_icon_dark_teal.svg"
   inkscape:version="0.92.3 (d244b95, 2018-08-02)">
  <metadata
     id="metadata70">
    <rdf:RDF>
      <cc:Work
         rdf:about="">
        <dc:format>image/svg+xml</dc:format>
        <dc:type
           rdf:resource="http://purl.org/dc/dcmitype/StillImage" />
        <dc:title></dc:title>
      </cc:Work>
    </rdf:RDF>
  </metadata>
  <defs
     id="defs68" />
  <sodipodi:namedview
     pagecolor="#ffffff"
     bordercolor="#666666"
     borderopacity="1"
     objecttolerance="10"
     gridtolerance="10"
     guidetolerance="10"
     inkscape:pageopacity="0"
     inkscape:pageshadow="2"
     inkscape:window-width="1680"
     inkscape:window-height="986"
     id="namedview66"
     showgrid="false"
     inkscape:zoom="1.1224189"
     inkscape:cx="490"
     inkscape:cy="374.63732"
     inkscape:window-x="0"
     inkscape:window-y="27"
     inkscape:window-maximized="1"
     inkscape:current-layer="svg64" />
  <path
     inkscape:connector-curvature="0"
     id="path146"
     d="m 406.65305,677.5834 c 1.5125,-0.2291 3.9875,-0.2291 5.5,0 1.5125,0.2292 0.275,0.4166 -2.75,0.4166 -3.025,0 -4.2625,-0.1874 -2.75,-0.4166 z m -19.90404,-13.1002 c -9.26528,-6.49913 -29.22096,-20.81656 -44.34596,-31.81655 -43.63252,-31.73272 -54.16416,-38.44916 -64.7663,-41.30402 -2.31143,-0.62241 -10.1858,-1.55924 -17.49859,-2.08184 C 189.73472,584.24941 114.90792,549.6591 68.251452,500.577 28.322082,458.57173 3.2973724,402.83873 2.2116424,353.49848 l -0.19141,-8.69878 -0.55859,9.5 -0.55857995,9.5 -0.65666,-15.5 c -0.36116005,-8.525 -0.32049,-20.45 0.0904,-26.5 l 0.74703995,-11 0.30897,8.5 0.30897,8.5 0.73113,-11.5 c 2.0927,-32.91643 15.6480796,-71.35459 35.7943896,-101.5 10.5556,-15.79459 21.00856,-28.13106 37.31264,-44.03596 33.284518,-32.46961 67.160828,-53.1413 111.200138,-67.8555 25.32163,-8.460337 46.68148,-13.054417 68.52388,-14.738117 19.62845,-1.51304 74.2542,-0.5803 87.17044,1.48844 25.92331,4.15203 56.24689,13.122637 82.81334,24.498617 7.88957,3.37839 14.93879,6.14252 15.66493,6.14252 0.72614,0 3.18863,-2.3625 5.47221,-5.25 7.06278,-8.93065 33.45089,-35.17076 44.54642,-44.29659 29.45259,-24.22411 65.63903,-42.93826 106.08761,-54.864183 15.85221,-4.673892 26.88085,-7.0468616 44.87353,-9.6552016 13.77309,-1.99664 17.70851,-2.13049 48.49997,-1.64952 35.3842,0.55271 45.0835,1.33923 64.5588,5.23514 C 842.08261,27.24949 916.98215,81.6612 953.83315,154.2997 c 13.9179,27.43402 20.6011,52.08366 22.5037,83 l 0.7693,12.5 0.3046,-9 0.3045,-9 0.6757,11.63015 c 0.3716,6.39658 0.3727,17.19658 0,24 l -0.6733,12.36985 -0.3088,-9.5 -0.3088,-9.5 -0.7464,13 c -1.3393,23.32976 -5.8873,44.2491 -14.1096,64.89908 -28.2212,70.8772 -90.68654,126.60006 -171.41724,152.91468 -28.2318,9.20231 -53.8854,14.07561 -85.743,16.28826 -5.8287,0.40482 -11.1101,1.34269 -13,2.30853 -1.7507,0.89469 -24.55811,17.17909 -50.68311,36.18757 -50.80782,36.96761 -57.16028,41.43068 -63.71016,44.76113 -7.21545,3.66886 -14.98693,2.30438 -18.64134,-3.27295 -3.06152,-4.67248 -2.65447,-8.71426 7.81368,-77.5863 3.52354,-23.18205 3.59743,-22.42936 -2.50557,-25.52199 -9.27057,-4.69793 -23.02491,-10.47801 -24.93324,-10.47801 -1.10466,0 -4.92187,3.41563 -9.20514,8.23675 -20.63652,23.22777 -35.21773,36.53812 -57.65358,52.62863 -15.75445,11.29875 -32.194,20.89518 -47.56966,27.76831 -10.15962,4.54149 -12.97636,6.23837 -13.75841,8.28846 -1.20777,3.16608 -0.24326,12.06032 5.73053,52.84426 2.43829,16.64652 4.43325,33.90348 4.43325,38.34879 0,7.7522 -0.12689,8.2009 -3.10576,10.9836 -2.68798,2.5109 -3.88571,2.9012 -8.90403,2.9012 -5.78684,0 -5.83156,-0.023 -22.64425,-11.8165 z m -0.0532,-41.19505 c 0.28932,-1.10635 -1.006,-12.46885 -2.87848,-25.25 -3.92365,-26.782 -4.30475,-38.18061 -1.4842,-44.39246 2.2114,-4.87026 5.97614,-7.32759 20.4519,-13.3494 56.65332,-23.56733 100.56899,-62.45807 126.46729,-111.99659 13.75491,-26.31054 19.8062,-47.9051 22.12915,-78.96979 2.49324,-33.34203 -4.20628,-65.61147 -20.25812,-97.57687 C 501.22487,192.21365 438.27715,143.43321 367.91044,125.27352 335.8242,116.99295 316.4,114.82336 280.77332,115.54069 c -18.28816,0.36822 -24.1633,0.87803 -35.87026,3.1126 -34.84136,6.65037 -57.93589,13.80858 -81,25.10617 -53.33948,26.12749 -91.271718,63.23749 -114.699378,112.21306 -14.27966,29.85167 -21.30554,65.69131 -18.75138,95.65247 2.20364,25.84946 8.62293,49.17712 19.86658,72.19507 11.73874,24.03152 25.88982,43.35377 45.78549,62.51671 18.976978,18.27809 37.016848,31.05051 61.377238,43.45576 36.24499,18.45735 69.75666,27.68244 116.42145,32.0485 9.35,0.87481 18.65742,1.95629 20.68315,2.4033 4.14184,0.91395 15.04297,8.24782 51.31684,34.52405 40.66121,29.45434 39.65976,28.85239 40.79277,24.51977 z M 196.88839,479.0497 c -3.44157,-9.51964 -14.21203,-46.40655 -13.68867,-46.88121 0.38684,-0.35083 7.67834,-2.52293 16.20334,-4.82688 19.23325,-5.19793 40.64875,-12.14135 51.64574,-16.74478 7.03182,-2.94358 8.35426,-3.86067 8.35426,-5.7936 0,-2.7037 -40.18306,-109.91054 -44.90444,-119.80331 -4.9578,-10.38813 -7.67873,-12.50438 -25.99954,-20.22157 -8.85281,-3.72902 -16.09602,-7.14669 -16.09602,-7.59482 0,-0.90642 10.85233,-24.6261 16.07457,-35.13383 2.16676,-4.35974 3.95502,-6.75 5.05,-6.75 0.93242,0 7.24834,2.08607 14.03537,4.63572 35.70565,13.41335 47.17709,21.16159 55.31859,37.36428 4.6818,9.31743 12.58526,31.12587 28.16361,77.71344 7.50121,22.43261 14.21471,41.4098 14.91889,42.17153 1.08296,1.17146 1.71168,1.04568 4.07827,-0.81588 10.8939,-8.56914 24.48648,-30.95465 33.13463,-54.56909 4.77809,-13.04695 11.0863,-37.49416 11.91221,-46.16525 l 0.58723,-6.16526 -3.38669,-0.9133 c -1.86268,-0.50232 -10.95607,-2.90295 -20.20753,-5.33475 l -16.82084,-4.42144 0.5654,-3 c 0.31098,-1.65 3.13327,-11.6625 6.27177,-22.25 5.01324,-16.91185 5.95523,-19.24761 7.75543,-19.2303 2.51041,0.0241 80.46524,20.56312 81.3305,21.42839 0.3402,0.3402 0.80058,8.59105 1.02307,18.33522 0.3427,15.00865 0.0765,19.50985 -1.74159,29.44805 -5.93948,32.46707 -18.8229,66.75358 -33.65121,89.5556 -33.27135,51.16253 -79.35068,80.28067 -164.83511,104.16149 -12.06144,3.36946 -14.42251,3.65132 -15.09124,1.80155 z m 406.33547,58.51519 c 3.67355,-2.60415 15.90419,-11.46281 27.17919,-19.68591 11.275,-8.2231 27.28705,-19.54486 35.58234,-25.15948 17.18412,-11.63096 16.81222,-11.50751 41.91772,-13.91446 68.0498,-6.52416 120.4498,-27.45234 165.3105,-66.0238 27.02694,-23.23786 49.99174,-55.18097 62.54654,-86.99961 8.6482,-21.91803 12.9878,-45.30107 12.9878,-69.98193 0,-31.41831 -6.0532,-57.17193 -20.2218,-86.03369 -20.082,-40.90742 -51.54934,-73.865277 -94.46724,-98.94193 -58.9372,-34.43669 -135.5448,-47.13249 -202.26106,-33.51974 -56.1034,11.44732 -101.36651,34.67162 -139.28933,71.46875 -6.81699,6.61464 -14.60405,14.66699 -17.30459,17.89413 -7.28098,8.70075 -6.90535,9.9466 6.19912,20.56048 12.43786,10.07397 34.28706,31.21437 44.33753,42.8992 20.50261,23.83665 34.1918,48.52392 44.45613,80.1728 7.92305,24.42979 10.66153,45.18327 9.94604,75.37561 -0.76412,32.24474 -4.02757,47.64054 -16.91424,79.7953 -5.24303,13.08237 -6.91209,18.34781 -6.42771,20.27773 0.55026,2.19241 3.15394,3.81629 16.37826,10.21494 24.73633,11.96878 25.65451,13.00876 25.45908,28.83642 -0.0679,5.5 -1.50837,19.45 -3.20102,31 -3.08481,21.04949 -3.16375,26.5 -0.38381,26.5 0.82024,0 4.49699,-2.13067 8.17055,-4.73481 z M 615.40305,244.7997 V 99.299703 h 26.5 26.50001 v 56.565737 c 0,54.00097 0.30214,60.43426 2.83833,60.43426 0.42237,0 2.67236,-2.70045 4.99998,-6.00101 10.58434,-15.00858 23.15144,-25.34305 37.16174,-30.55973 6.8313,-2.54362 8.9716,-2.83 24.0047,-3.21195 9.0777,-0.23064 18.9777,0.0379 22,0.59682 20.5224,3.79495 34.6641,16.48085 41.8895,37.57711 6.1254,17.88465 6.3716,21.56667 6.8443,102.34876 l 0.4286,73.25 h -27.0836 -27.0835 v -72.60566 c 0,-76.48349 -0.1291,-78.94195 -4.5994,-87.5865 -6.08,-11.7575 -20.7915,-18.17983 -34.0917,-14.88287 -12.0023,2.97522 -30.4045,18.1306 -41.05934,33.81514 l -5.74961,8.46374 -0.27081,66.39807 -0.27082,66.39808 H 641.88224 615.40305 Z M 668.71423,2.5514853 c 8.14615,-0.16828 21.19618,-0.16789 29.00008,8.6e-4 7.8038,0.16876 1.1388,0.30644 -14.8112,0.30596 -15.95006,-4.7e-4 -22.33503,-0.13854 -14.18888,-0.30682 z"
     style="fill:#46838e" />
</svg>
