<?xml version="1.0" encoding="UTF-8" standalone="no"?>
<!-- Created with Inkscape (http://www.inkscape.org/) -->

<svg
   xmlns:dc="http://purl.org/dc/elements/1.1/"
   xmlns:cc="http://creativecommons.org/ns#"
   xmlns:rdf="http://www.w3.org/1999/02/22-rdf-syntax-ns#"
   xmlns:svg="http://www.w3.org/2000/svg"
   xmlns="http://www.w3.org/2000/svg"
   xmlns:sodipodi="http://sodipodi.sourceforge.net/DTD/sodipodi-0.dtd"
   xmlns:inkscape="http://www.inkscape.org/namespaces/inkscape"
   width="808.56665mm"
   height="178.32916mm"
   viewBox="0 0 808.56665 178.32916"
   version="1.1"
   id="svg8"
   inkscape:version="0.92.3 (d244b95, 2018-08-02)"
   sodipodi:docname="nlph_logo.svg">
  <defs
     id="defs2" />
  <sodipodi:namedview
     id="base"
     pagecolor="#ffffff"
     bordercolor="#666666"
     borderopacity="1.0"
     inkscape:pageopacity="0.0"
     inkscape:pageshadow="2"
     inkscape:zoom="0.35"
     inkscape:cx="1765.0545"
     inkscape:cy="325.21528"
     inkscape:document-units="mm"
     inkscape:current-layer="layer1"
     showgrid="false"
     inkscape:window-width="1680"
     inkscape:window-height="986"
     inkscape:window-x="0"
     inkscape:window-y="27"
     inkscape:window-maximized="1" />
  <metadata
     id="metadata5">
    <rdf:RDF>
      <cc:Work
         rdf:about="">
        <dc:format>image/svg+xml</dc:format>
        <dc:type
           rdf:resource="http://purl.org/dc/dcmitype/StillImage" />
        <dc:title></dc:title>
      </cc:Work>
    </rdf:RDF>
  </metadata>
  <g
     inkscape:label="Layer 1"
     inkscape:groupmode="layer"
     id="layer1"
     transform="translate(210.91147,-50.530562)">
    <g
       id="g119"
       transform="translate(-21.31862,-27.281045)">
      <path
         style="fill:#fdfdfe;stroke-width:0.26458332"
         d="m -189.55306,212.15379 c 0.0219,-24.19284 0.1288,-42.43917 0.23759,-40.54739 0.24669,4.28977 0.76475,7.31986 1.9471,11.38843 6.55962,22.57219 24.8231,39.98216 49.89844,47.5665 5.93838,1.79614 12.03517,2.96659 17.47913,3.35563 5.96254,0.42609 6.32714,0.6213 20.753156,11.11144 3.929063,2.85709 9.033677,6.52618 11.34359,8.15354 l 4.19984,2.95883 h -52.949316 -52.94932 z m 111.617274,43.12708 c 0.787937,-1.29231 0.682808,-3.01652 -0.809821,-13.28169 -0.734848,-5.05373 -1.359926,-10.20828 -1.389062,-11.45455 l -0.05298,-2.26594 3.571875,-1.63309 c 8.579564,-3.92266 17.711655,-10.5004 24.105629,-17.36302 1.657789,-1.77929 3.624998,-3.87422 4.371575,-4.65539 l 1.357416,-1.42031 1.329396,0.52399 c 0.731168,0.2882 2.478177,1.06083 3.882244,1.71695 l 2.552849,1.19296 -0.149056,0.87135 c -0.08198,0.47924 -0.448231,2.89541 -0.81389,5.36926 -0.36566,2.47386 -1.078852,7.2646 -1.584873,10.64611 -0.506023,3.3815 -0.920041,6.7012 -0.920041,7.3771 0,1.56329 0.777711,2.85725 2.132788,3.54856 2.497865,1.27432 2.142098,1.48086 20.75367,-12.04875 6.839479,-4.97193 12.7330728,-9.2251 13.0968749,-9.45148 0.4050665,-0.25207 1.6357441,-0.47881 3.1749999,-0.58498 29.9312932,-2.06442 54.7216112,-16.92515 66.3757362,-39.7894 5.041842,-9.8916 7.0515,-19.79752 6.36783,-31.38801 -0.523877,-8.88143 -2.221185,-15.2666 -6.086673,-22.89768 C 53.385445,98.65934 33.522325,84.258371 9.9029792,79.557194 4.6830703,78.518227 2.1325902,78.303314 -6.7657704,78.152623 c -7.6106816,-0.128885 -8.6789916,-0.09127 -12.3031246,0.433186 -17.059635,2.468739 -32.262101,9.409253 -43.798233,19.995589 -1.784614,1.637682 -7.330215,7.384702 -9.012385,9.339722 l -0.952286,1.10674 -3.677922,-1.60418 c -6.988808,-3.04827 -15.652742,-5.61511 -22.790573,-6.75211 -3.480466,-0.5544 -17.170926,-0.800226 -22.214466,-0.39887 -9.96538,0.79301 -22.27199,4.54161 -31.40018,9.56451 -3.55416,1.95571 -7.9648,4.88263 -11.01333,7.30848 -3.00338,2.38993 -8.82117,8.09248 -11.42767,11.20133 -8.06109,9.61471 -13.24267,21.98476 -13.96443,33.3375 -0.1064,1.67349 -0.21123,-16.51331 -0.23296,-40.4151 l -0.0395,-43.457813 H 214.69048 618.9738 v 89.164583 89.16458 H 270.25686 -78.460074 Z M 234.66652,165.91785 v -55.95937 h -7.14375 -7.14375 l -0.0669,46.10364 c -0.0531,36.62064 -0.13478,46.10197 -0.39688,46.09551 -0.1815,-0.004 -13.24826,-20.32531 -29.03727,-45.15742 -15.78901,-24.83212 -29.03668,-45.60653 -29.43924,-46.16537 l -0.73197,-1.01607 -8.39615,0.0699 -8.39619,0.0698 v 55.5625 55.5625 h 7.14375 7.14375 l 0.0669,-45.70677 c 0.0531,-36.30232 0.13481,-45.70536 0.39688,-45.69992 0.1815,0.004 13.42686,20.61775 29.43415,45.80883 16.00729,25.19109 29.26315,45.96607 29.45749,46.16663 0.28842,0.29768 1.89182,0.35182 8.73125,0.29481 l 8.37793,-0.0698 z m 111.65416,49.34479 v -5.82083 l -22.75417,-0.13229 -22.75416,-0.13229 -0.13229,-49.60938 -0.1323,-49.60937 h -7.14374 -7.14375 l -0.0678,55.29792 c -0.0373,30.41385 -0.0111,55.44725 0.0583,55.62977 0.10033,0.26394 6.25993,0.31809 30.09807,0.26458 l 29.97192,-0.0673 z m 56.68838,-18.50608 c 0.0411,-14.80492 0.16481,-24.38702 0.31605,-24.48049 0.13665,-0.0845 1.83269,0.0106 3.76891,0.21133 5.42287,0.56212 19.04867,0.53712 23.35969,-0.0429 8.13287,-1.09415 13.10497,-2.7288 17.86543,-5.87353 4.48453,-2.96244 8.29143,-8.04421 10.00326,-13.35316 1.9049,-5.90778 2.13596,-15.01822 0.54354,-21.43125 -2.54442,-10.24688 -10.03142,-17.46499 -21.00223,-20.24796 -6.10389,-1.54838 -6.68385,-1.58016 -28.83678,-1.58016 h -20.37292 l -0.0678,55.29792 c -0.0373,30.41385 -0.0106,55.44869 0.0595,55.63297 0.0993,0.26131 1.68682,0.31955 7.21159,0.26459 l 7.08424,-0.0705 z m 9.45745,-35.49039 c -0.58208,-0.0559 -2.72521,-0.22858 -4.7625,-0.38378 -2.03729,-0.15519 -3.91329,-0.34413 -4.1689,-0.41985 -0.43858,-0.12993 -0.46091,-1.22758 -0.39688,-19.50004 l 0.0679,-19.36235 10.9802,-0.0811 c 11.46223,-0.0846 15.15946,0.11665 18.68903,1.01735 5.99139,1.52894 10.40347,5.93548 11.89609,11.88116 0.89887,3.5805 0.89112,10.55024 -0.0156,14.0152 -1.02782,3.92793 -3.66834,7.58891 -6.86054,9.5119 -2.04687,1.23305 -5.33778,2.30645 -8.62774,2.81412 -2.64502,0.40814 -14.19995,0.75708 -16.80104,0.50735 z m 107.29161,32.30064 c 0.0745,-15.13417 0.16375,-27.54643 0.19844,-27.58281 0.0347,-0.0364 13.45761,-0.0662 29.8287,-0.0662 16.37109,0 29.79401,0.0298 29.8287,0.0662 0.0347,0.0364 0.12398,12.44864 0.19844,27.58281 l 0.13536,27.51667 6.99307,0.0706 c 5.41822,0.0547 7.04098,-0.005 7.20585,-0.26458 0.11702,-0.18437 0.21277,-25.10022 0.21277,-55.36855 0,-30.26833 -0.0958,-55.18418 -0.21277,-55.36855 -0.16487,-0.25972 -1.78763,-0.31931 -7.20585,-0.26458 l -6.99307,0.0706 -0.13613,21.96042 c -0.0749,12.07823 -0.16415,21.99018 -0.19844,22.02656 -0.0343,0.0364 -13.45684,0.0661 -29.82793,0.0661 -16.37109,0 -29.79367,-0.0298 -29.82793,-0.0661 -0.0343,-0.0364 -0.12359,-9.94833 -0.19844,-22.02656 l -0.13613,-21.96042 -6.99307,-0.0706 c -5.41822,-0.0547 -7.04098,0.005 -7.20585,0.26458 -0.24537,0.3866 -0.30347,110.01104 -0.0586,110.64909 0.14396,0.37516 0.95602,0.41485 7.2099,0.35237 l 7.04765,-0.0704 z m -609.470764,47.81251 c -8.217527,-5.99364 -15.203746,-11.0013 -17.898316,-12.82934 l -3.29368,-2.2345 -2.63317,-0.30382 c -1.44824,-0.1671 -3.94285,-0.42592 -5.54358,-0.57515 -14.67982,-1.36855 -28.06449,-6.38819 -38.98919,-14.6221 -3.1397,-2.36638 -8.26709,-7.2798 -10.53361,-10.09404 -10.50919,-13.04884 -14.5141,-28.55583 -11.33471,-43.88795 4.61984,-22.2785 24.30472,-40.73271 49.4196,-46.32996 7.30812,-1.62873 10.40499,-1.99919 16.71218,-1.99919 9.54988,0 14.111583,0.5299 21.804735,2.53288 20.487992,5.33424 38.112226,20.2639 44.936901,38.0665 2.543196,6.63409 3.55146,13.70298 3.005241,21.06963 -0.394698,5.32314 -0.938866,8.27744 -2.286664,12.41432 -2.805763,8.61192 -7.900001,16.58426 -14.973723,23.43347 -6.114381,5.92031 -13.056761,10.42679 -21.551259,13.98946 -6.967056,2.92205 -7.233682,3.65335 -5.538576,15.19119 0.520729,3.54437 0.94678,6.61023 0.94678,6.81302 0,0.6209 -0.860796,0.37807 -2.248959,-0.63442 z m -43.570576,-37.24448 c 11.85167,-3.32643 20.66855,-6.97276 27.43099,-11.34445 13.380093,-8.64978 21.511504,-21.3169 25.317903,-39.44024 0.521057,-2.48091 0.610578,-3.68088 0.606599,-8.13116 -0.0038,-4.26773 -0.07626,-5.28754 -0.396875,-5.58669 -0.466323,-0.4351 -21.859277,-6.08725 -22.340647,-5.90253 -0.54204,0.208 -4.0428,11.99452 -3.67067,12.35862 0.12051,0.11791 2.47289,0.81532 5.2275,1.5498 2.75462,0.73447 5.107803,1.43482 5.229302,1.55631 0.501735,0.50174 -1.479299,8.76382 -3.27393,13.65423 -1.961352,5.34471 -4.612932,9.96104 -7.366362,12.82462 -1.13743,1.18293 -1.4226,1.36032 -1.7014,1.05834 -0.18422,-0.19954 -1.90233,-5.04844 -3.81802,-10.77535 -5.75653,-17.20895 -7.35104,-21.16052 -9.53891,-23.6396 -2.13812,-2.42273 -5.78115,-4.40628 -13.20404,-7.18934 -1.79574,-0.67327 -3.43165,-1.22413 -3.63537,-1.22413 -0.55283,0 -6.1105,11.40329 -5.80142,11.90341 0.0753,0.12188 2.06545,1.03393 4.42249,2.02678 4.82761,2.03351 5.54358,2.58054 6.7618,5.16638 0.43355,0.92027 3.31213,8.38769 6.39685,16.59427 4.67571,12.43925 5.54986,14.97977 5.25556,15.27407 -0.7745,0.7745 -8.62519,3.44923 -15.9459,5.43277 -2.18824,0.5929 -4.06092,1.15355 -4.16152,1.24589 -0.13542,0.12431 2.92223,10.51425 3.88422,13.19862 0.17516,0.48875 0.63783,0.42338 4.32185,-0.61062 z m 101.11745,15.5248 c 0,-0.41931 0.361376,-3.24704 0.803058,-6.28385 0.98797,-6.79287 1.059765,-9.63309 0.282038,-11.15756 -0.746773,-1.4638 -1.634045,-2.07609 -6.112179,-4.21792 -2.110052,-1.0092 -4.053986,-2.08191 -4.319849,-2.3838 -0.473147,-0.53725 -0.440392,-0.65623 1.545312,-5.6134 3.330138,-8.31345 4.62662,-14.69496 4.62662,-22.77306 0,-13.82741 -4.639691,-27.11624 -13.258837,-37.97549 -2.368184,-2.98367 -8.634023,-9.31111 -11.732532,-11.84788 -4.438279,-3.63364 -4.483565,-3.68181 -4.268282,-4.53957 0.266414,-1.06148 8.367286,-9.0825 11.697822,-11.58253 6.457849,-4.847498 11.479667,-7.569461 18.884746,-10.236047 9.002125,-3.241687 16.689697,-4.585054 26.1937493,-4.577236 16.3516703,0.01345 31.1505087,4.42873 43.5239577,12.985504 14.588944,10.088889 23.628368,24.677299 25.255113,40.758359 2.130243,21.05834 -9.338902,41.54349 -30.014605,53.60937 -9.403421,5.48763 -19.648902,8.56361 -32.6790492,9.81117 -6.8167725,0.65267 -7.0930028,0.74472 -11.7392188,3.91197 -2.20192,1.50101 -6.44427,4.50919 -9.427447,6.68483 -7.139112,5.20659 -8.559014,6.18952 -8.941181,6.18952 -0.17558,0 -0.319236,-0.34307 -0.319236,-0.76238 z m 20.108333,-56.38762 0.132292,-17.85937 1.170691,-1.7198 c 2.4900995,-3.65804 6.9955884,-7.60614 9.81527411,-8.60099 0.61550813,-0.21716 1.96734109,-0.39367 3.00407119,-0.39225 2.3595435,0.003 4.1548208,0.77471 5.5233357,2.37351 1.9977787,2.33395 1.9002692,1.20061 2.0491899,23.81765 l 0.1332707,20.24062 h 7.5406244 7.540625 l -0.0049,-19.04999 c -0.0044,-17.01105 -0.05579,-19.37567 -0.480316,-22.09271 -1.478685,-9.46381 -5.464919,-14.52212 -12.63654,-16.03506 -1.44549,-0.30494 -3.0005412,-0.38577 -5.9282378,-0.30815 -3.4813477,0.0923 -4.2283855,0.1949 -6.08287652,0.83537 -3.86849138,1.33602 -6.87623498,3.6198 -9.80750068,7.44683 -0.832263,1.08657 -1.614784,1.97559 -1.738953,1.97559 -0.124166,0 -0.25649,-6.87586 -0.294052,-15.27969 l -0.06829,-15.27968 h -7.408333 -7.408333 l -0.06798,38.62916 c -0.03739,21.24604 -0.01064,38.77989 0.05945,38.96409 0.09948,0.26145 1.739757,0.3195 7.476315,0.26459 l 7.348881,-0.0703 z"
         id="path123"
         inkscape:connector-curvature="0" />
      <path
         style="fill:#47848f;stroke-width:0.26458332"
         d="m -87.894054,253.18194 c -2.309913,-1.62736 -7.414527,-5.29645 -11.34359,-8.15354 -14.426016,-10.49014 -14.790616,-10.68535 -20.753156,-11.11144 -15.74321,-1.12504 -32.79231,-7.81002 -44.98773,-17.63976 -10.78651,-8.69414 -18.63349,-20.35646 -22.38667,-33.27148 -1.24304,-4.27739 -1.66435,-6.88238 -1.96867,-12.17248 -0.65947,-11.46342 1.25677,-21.02476 6.14188,-30.64587 3.24018,-6.38144 7.39146,-11.86439 13.4791,-17.80299 5.46726,-5.3334 10.4444,-9.05106 16.79795,-12.54717 9.12819,-5.0229 21.4348,-8.7715 31.40018,-9.56451 5.04354,-0.401356 18.734,-0.15553 22.214466,0.39887 7.137831,1.137 15.801765,3.70384 22.790573,6.75211 l 3.677922,1.60418 0.952286,-1.10674 c 1.68217,-1.95502 7.227771,-7.70204 9.012385,-9.339722 11.536132,-10.586336 26.738598,-17.52685 43.798233,-19.995589 3.624133,-0.524456 4.692443,-0.562071 12.3031246,-0.433186 8.8983606,0.150691 11.4488407,0.365604 16.6687496,1.404571 18.2747548,3.637393 34.9273008,13.429184 45.8528038,26.961706 5.551482,6.87616 10.064099,15.58922 11.948993,23.07136 1.952522,7.75059 2.3738,18.00927 1.064969,25.93344 -2.017572,12.2152 -8.36436,24.17205 -17.885039,33.69403 -13.593749,13.59561 -32.453767,21.64959 -54.2108932,23.15022 -1.5392558,0.10617 -2.7699334,0.33291 -3.1749999,0.58498 -0.3638021,0.22638 -6.2573959,4.47955 -13.0968749,9.45148 -16.116985,11.71618 -17.406606,12.56969 -18.992289,12.56969 -1.114308,0 -2.713212,-0.92976 -3.33834,-1.94123 -0.758478,-1.22725 -0.718524,-2.26997 0.364212,-9.50537 0.506021,-3.38151 1.219213,-8.17225 1.584873,-10.64611 0.365659,-2.47385 0.731909,-4.89002 0.81389,-5.36926 l 0.149056,-0.87135 -2.552849,-1.19296 c -1.404067,-0.65612 -3.151076,-1.42875 -3.882244,-1.71695 l -1.329396,-0.52399 -1.357416,1.42031 c -0.746577,0.78117 -2.713786,2.8761 -4.371575,4.65539 -6.393974,6.86262 -15.526065,13.44036 -24.105629,17.36302 l -3.571875,1.63309 0.05298,2.26594 c 0.02914,1.24627 0.654214,6.40082 1.389062,11.45455 1.492629,10.26517 1.597758,11.98938 0.809821,13.28169 l -0.524288,0.8599 h -2.61707 -2.61707 z m 0.430369,-11.1682 c 0,-0.20279 -0.426051,-3.26865 -0.94678,-6.81302 -1.695106,-11.53784 -1.42848,-12.26914 5.538576,-15.19119 12.870349,-5.39794 23.015265,-13.5649 30.173704,-24.29073 3.674449,-5.5056 6.982447,-13.51715 7.935018,-19.21761 1.649582,-9.87158 0.872755,-19.11617 -2.302317,-27.39854 -6.824675,-17.8026 -24.448909,-32.73226 -44.936901,-38.0665 -7.693152,-2.00298 -12.254855,-2.53288 -21.804735,-2.53288 -6.30719,0 -9.40406,0.37046 -16.71218,1.99919 -15.93389,3.55112 -30.26919,12.52121 -39.40103,24.65459 -9.5165,12.64445 -13.05599,27.58 -10.0133,42.25293 3.42752,16.52867 15.30027,31.23694 32.14495,39.822 8.97588,4.57466 18.27305,7.23178 28.70729,8.20453 1.60073,0.14923 4.09534,0.40805 5.54358,0.57515 l 2.63317,0.30382 3.29368,2.2345 c 2.69457,1.82804 9.680789,6.8357 17.898316,12.82934 1.388163,1.01249 2.248959,1.25532 2.248959,0.63442 z m -50.141385,-37.26828 c -0.96199,-2.68437 -4.01964,-13.07431 -3.88422,-13.19862 0.1006,-0.0923 1.97328,-0.65299 4.16152,-1.24589 7.32071,-1.98354 15.1714,-4.65827 15.9459,-5.43277 0.2943,-0.2943 -0.57985,-2.83482 -5.25556,-15.27407 -3.08472,-8.20658 -5.9633,-15.674 -6.39685,-16.59427 -1.21822,-2.58584 -1.93419,-3.13287 -6.7618,-5.16638 -2.35704,-0.99285 -4.34716,-1.9049 -4.42249,-2.02678 -0.30908,-0.50012 5.24859,-11.90341 5.80142,-11.90341 0.20372,0 1.83963,0.55086 3.63537,1.22413 7.42289,2.78306 11.06592,4.76661 13.20404,7.18934 2.18787,2.47908 3.78238,6.43065 9.53891,23.6396 1.91569,5.72691 3.6338,10.57581 3.81802,10.77535 0.2788,0.30198 0.56397,0.12459 1.7014,-1.05834 2.75343,-2.86358 5.40501,-7.47991 7.366362,-12.82462 1.794631,-4.89041 3.775665,-13.15249 3.27393,-13.65423 -0.121499,-0.12149 -2.474682,-0.82184 -5.229302,-1.55631 -2.75461,-0.73448 -5.10699,-1.43189 -5.2275,-1.5498 -0.37213,-0.3641 3.12863,-12.15062 3.67067,-12.35862 0.48137,-0.18472 21.874324,5.46743 22.340647,5.90253 0.320614,0.29915 0.39306,1.31896 0.396875,5.58669 0.004,4.45028 -0.08554,5.65025 -0.606599,8.13116 -2.876995,13.69818 -8.276638,24.33559 -16.425942,32.35946 -8.210851,8.08448 -19.025501,13.57033 -36.322951,18.42523 -3.68402,1.034 -4.14669,1.09937 -4.32185,0.61062 z m 107.676765,14.55966 c 0.879446,-0.61429 4.039775,-2.89697 7.022952,-5.07262 2.983177,-2.17564 7.225527,-5.18382 9.427447,-6.68483 4.646216,-3.16725 4.9224463,-3.2593 11.7392188,-3.91197 C 11.29146,202.38814 21.536941,199.31216 30.940362,193.82453 51.616065,181.75865 63.08521,161.2735 60.954967,140.21516 59.328222,124.1341 50.288798,109.54569 35.699854,99.456801 23.326405,90.900027 8.5275666,86.484749 -7.8241037,86.471297 c -9.5040523,-0.0078 -17.1916243,1.335549 -26.1937493,4.577236 -7.405079,2.666586 -12.426897,5.388549 -18.884746,10.236047 -3.330536,2.50003 -11.431408,10.52105 -11.697822,11.58253 -0.215283,0.85776 -0.169997,0.90593 4.268282,4.53957 3.098509,2.53677 9.364348,8.86421 11.732532,11.84788 8.619146,10.85925 13.258837,24.14808 13.258837,37.97549 0,8.0781 -1.296482,14.45961 -4.62662,22.77306 -1.985704,4.95717 -2.018459,5.07615 -1.545312,5.6134 0.265863,0.30189 2.209797,1.3746 4.319849,2.3838 4.478134,2.14183 5.365406,2.75412 6.112179,4.21792 0.777727,1.52447 0.705932,4.36469 -0.282038,11.15756 -0.8881,6.10619 -0.952648,7.04623 -0.483822,7.04623 0.175577,0 1.03878,-0.50261 1.918229,-1.1169 z m 2.91338,-38.36797 c -0.07009,-0.1842 -0.09684,-17.71805 -0.05945,-38.96409 l 0.06798,-38.62916 h 7.408333 7.408333 l 0.06829,15.27968 c 0.03756,8.40383 0.169886,15.27969 0.294052,15.27969 0.124169,0 0.90669,-0.88902 1.738942,-1.97559 2.9312662,-3.82703 5.9390097,-6.11081 9.8075011,-7.44683 1.854491,-0.64047 2.6015288,-0.74306 6.0828765,-0.83537 2.9276966,-0.0776 4.4827484,0.003 5.9282384,0.30815 7.171621,1.51294 11.157854,6.57125 12.636539,16.03506 0.424529,2.71704 0.475938,5.08166 0.480317,22.09271 l 0.0049,19.04999 H 17.311302 9.770677 L 9.6374064,160.89077 c -0.1489208,-22.61704 -0.051411,-21.4837 -2.04919,-23.81765 -1.3685149,-1.5988 -3.1637922,-2.37028 -5.5233357,-2.37351 -1.0367301,-0.001 -2.38856304,0.17509 -3.00407117,0.39225 -2.81968573,0.99485 -7.32517463,4.94295 -9.81527453,8.60099 l -1.17068,1.7198 -0.132292,17.85937 -0.132292,17.85937 -7.348881,0.0703 c -5.736558,0.0549 -7.37684,-0.003 -7.476315,-0.26459 z m 244.572265,40.7151 c -0.19434,-0.20056 -13.4502,-20.97554 -29.45749,-46.16663 -16.00729,-25.19108 -29.25265,-45.80506 -29.43415,-45.80883 -0.26207,-0.005 -0.34375,9.3976 -0.39688,45.69992 l -0.0669,45.70677 h -7.14375 -7.14375 v -55.5625 -55.5625 l 8.39619,-0.0698 8.39615,-0.0699 0.73197,1.01607 c 0.40256,0.55884 13.65023,21.33325 29.43924,46.16537 15.78901,24.83211 28.85577,45.15295 29.03727,45.15742 0.2621,0.006 0.34375,-9.47487 0.39688,-46.09551 l 0.0669,-46.10364 h 7.14375 7.14375 v 55.95937 55.95938 l -8.37793,0.0698 c -6.83943,0.057 -8.44283,0.003 -8.73125,-0.29481 z m 68.69335,-0.76608 c -0.0694,-0.18252 -0.0956,-25.21592 -0.0583,-55.62977 l 0.0678,-55.29792 h 7.14375 7.14374 l 0.1323,49.60937 0.13229,49.60938 22.75416,0.13229 22.75417,0.13229 v 5.82083 5.82084 l -29.97192,0.0673 c -23.83814,0.0535 -29.99774,-5.2e-4 -30.09807,-0.26458 z m 102.39499,0.003 c -0.07,-0.18428 -0.0968,-25.21912 -0.0595,-55.63297 l 0.0678,-55.29792 h 20.37292 c 22.15293,0 22.73289,0.0318 28.83678,1.58016 12.78567,3.24335 20.42768,12.07809 21.86278,25.27505 0.36462,3.35309 0.16005,9.30963 -0.42711,12.43541 -1.96279,10.4491 -8.30342,17.56415 -18.74166,21.03067 -3.16595,1.05141 -5.42348,1.53508 -10.10401,2.16477 -4.31102,0.57998 -17.93682,0.60498 -23.35969,0.0429 -1.93622,-0.2007 -3.63226,-0.2958 -3.76891,-0.21133 -0.15124,0.0935 -0.27496,9.67557 -0.31605,24.48049 l -0.0675,24.32692 -7.08424,0.0705 c -5.52477,0.055 -7.11229,-0.003 -7.21159,-0.26459 z m 40.62187,-60.13055 c 3.28997,-0.50767 6.58088,-1.58107 8.62775,-2.81412 3.1922,-1.92299 5.83271,-5.58397 6.86054,-9.5119 0.9067,-3.46496 0.91445,-10.4347 0.0156,-14.0152 -1.49262,-5.94568 -5.90471,-10.35222 -11.89609,-11.88116 -3.52957,-0.9007 -7.2268,-1.10196 -18.68903,-1.01735 l -10.98021,0.0811 -0.0679,19.36235 c -0.064,18.27246 -0.0417,19.37011 0.39687,19.50004 0.25562,0.0757 2.13162,0.26466 4.16891,0.41985 2.03729,0.1552 4.18042,0.3279 4.7625,0.38378 2.60109,0.24973 14.15603,-0.0992 16.80104,-0.50735 z m 76.09766,60.0427 c -0.24484,-0.63805 -0.18674,-110.26249 0.0586,-110.64909 0.16487,-0.25972 1.78763,-0.31931 7.20585,-0.26458 l 6.99307,0.0706 0.13613,21.96042 c 0.0749,12.07823 0.16415,21.99018 0.19844,22.02656 0.0343,0.0364 13.45684,0.0661 29.82793,0.0661 16.37109,0 29.79367,-0.0298 29.82793,-0.0661 0.0343,-0.0364 0.12359,-9.94833 0.19844,-22.02656 l 0.13613,-21.96042 6.99307,-0.0706 c 5.41822,-0.0547 7.04098,0.005 7.20585,0.26458 0.11702,0.18437 0.21277,25.10022 0.21277,55.36855 0,30.26833 -0.0958,55.18418 -0.21277,55.36855 -0.16487,0.25972 -1.78763,0.3193 -7.20585,0.26458 l -6.99307,-0.0706 -0.13536,-27.51667 c -0.0745,-15.13417 -0.16375,-27.54643 -0.19844,-27.58281 -0.0347,-0.0364 -13.45761,-0.0662 -29.8287,-0.0662 -16.37109,0 -29.79401,0.0298 -29.8287,0.0662 -0.0347,0.0364 -0.12399,12.44864 -0.19844,27.58281 l -0.13536,27.51667 -7.04765,0.0704 c -6.25388,0.0625 -7.06594,0.0228 -7.2099,-0.35237 z"
         id="path121"
         inkscape:connector-curvature="0" />
    </g>
  </g>
</svg>
